<?xml version="1.0" encoding="UTF-8"?>
<svg width="272px" height="50px" viewBox="0 0 272 50" version="1.1" xmlns="http://www.w3.org/2000/svg" xmlns:xlink="http://www.w3.org/1999/xlink">
    <!-- Generator: Sketch 61.2 (89653) - https://sketch.com -->
    <title>StellaLee</title>
    <desc>Created with Sketch.</desc>
    <defs>
        <path d="M16.496,49.816 C25.88,49.816 31.728,44.172 31.728,37.1 C31.728,30.504 27.716,27.376 22.548,25.2 L16.156,22.412 C12.688,20.984 8.812,19.352 8.812,15.068 C8.812,11.124 12.076,8.608 17.04,8.608 C20.916,8.608 24.384,10.172 27.104,12.756 L30.232,8.948 C27.104,5.82 22.48,3.576 17.04,3.576 C8.948,3.576 3.032,8.608 3.032,15.408 C3.032,22.004 7.86,25.132 12.008,26.9 L18.468,29.756 C22.616,31.592 25.88,33.02 25.88,37.576 C25.88,41.86 22.412,44.784 16.564,44.784 C11.872,44.784 7.316,42.744 4.052,39.412 L0.856,43.152 C4.732,47.3 10.104,49.816 16.496,49.816 Z M50.292,49.816 C52.536,49.816 54.78,49.204 56.548,48.388 L55.392,44.376 C54.032,44.988 52.808,45.192 51.584,45.192 C47.844,45.192 46.484,42.88 46.484,38.868 L46.484,20.508 L55.46,20.508 L55.46,15.952 L46.484,15.952 L46.484,5.344 L41.792,5.344 L41.112,15.952 L35.944,16.292 L35.944,20.508 L40.84,20.508 L40.84,38.732 C40.84,45.328 43.22,49.816 50.292,49.816 Z M76.268,49.816 C80.824,49.816 84.36,48.456 87.216,46.416 L85.244,42.812 C82.932,44.376 80.144,45.26 76.948,45.26 C70.692,45.26 66.544,40.772 66.068,33.972 L88.304,33.972 C88.508,32.884 88.576,31.864 88.576,30.64 C88.576,21.12 83.748,15.136 75.316,15.136 C67.768,15.136 60.492,21.732 60.492,32.476 C60.492,43.424 67.428,49.816 76.268,49.816 Z M83.544,29.62 L66.068,29.62 C66.748,23.296 70.828,19.624 75.452,19.624 C80.484,19.624 83.544,23.092 83.544,29.62 Z M102.584,49.816 C104.012,49.816 105.032,49.612 105.848,49.204 L105.1,44.988 C104.556,45.124 104.284,45.124 103.944,45.124 C103.06,45.124 102.312,44.512 102.312,42.744 L102.312,0.584 L96.668,0.584 L96.668,42.336 C96.668,47.096 98.368,49.816 102.584,49.816 Z M119.924,49.816 C121.352,49.816 122.372,49.612 123.188,49.204 L122.44,44.988 C121.896,45.124 121.624,45.124 121.284,45.124 C120.4,45.124 119.652,44.512 119.652,42.744 L119.652,0.584 L114.008,0.584 L114.008,42.336 C114.008,47.096 115.708,49.816 119.924,49.816 Z M138.964,49.816 C143.112,49.816 146.716,47.708 149.844,45.056 L150.048,45.056 L150.592,49 L155.216,49 L155.216,28.668 C155.216,20.508 151.748,15.136 143.724,15.136 C138.42,15.136 133.796,17.38 130.736,19.42 L132.912,23.228 C135.496,21.528 138.964,19.828 142.772,19.828 C148.144,19.828 149.504,23.84 149.572,27.988 C135.428,29.552 129.308,33.088 129.308,40.432 C129.308,46.416 133.456,49.816 138.964,49.816 Z M140.528,45.192 C137.332,45.192 134.816,43.764 134.816,40.092 C134.816,35.808 138.42,33.292 149.572,32 L149.572,40.976 C146.376,43.764 143.724,45.192 140.528,45.192 Z M204.924,49 L204.924,44.172 L185.476,44.172 L185.476,4.392 L179.764,4.392 L179.764,49 L204.924,49 Z M225.596,49.816 C230.152,49.816 233.688,48.456 236.544,46.416 L234.572,42.812 C232.26,44.376 229.472,45.26 226.276,45.26 C220.02,45.26 215.872,40.772 215.396,33.972 L237.632,33.972 C237.836,32.884 237.904,31.864 237.904,30.64 C237.904,21.12 233.076,15.136 224.644,15.136 C217.096,15.136 209.82,21.732 209.82,32.476 C209.82,43.424 216.756,49.816 225.596,49.816 Z M232.872,29.62 L215.396,29.62 C216.076,23.296 220.156,19.624 224.78,19.624 C229.812,19.624 232.872,23.092 232.872,29.62 Z M259.324,49.816 C263.88,49.816 267.416,48.456 270.272,46.416 L268.3,42.812 C265.988,44.376 263.2,45.26 260.004,45.26 C253.748,45.26 249.6,40.772 249.124,33.972 L271.36,33.972 C271.564,32.884 271.632,31.864 271.632,30.64 C271.632,21.12 266.804,15.136 258.372,15.136 C250.824,15.136 243.548,21.732 243.548,32.476 C243.548,43.424 250.484,49.816 259.324,49.816 Z M266.6,29.62 L249.124,29.62 C249.804,23.296 253.884,19.624 258.508,19.624 C263.54,19.624 266.6,23.092 266.6,29.62 Z" id="path-1"></path>
    </defs>
    <g id="Page-1" stroke="none" stroke-width="1" fill="none" fill-rule="evenodd">
        <g id="StellaLee" fill-rule="nonzero">
            <use fill="#000000" xlink:href="#path-1"></use>
            <use fill="#D8D8D8" xlink:href="#path-1"></use>
        </g>
    </g>
</svg>